<?xml version="1.0" encoding="UTF-8" standalone="no"?>
<svg
   version="1.1"
   x="0px"
   y="0px"
   viewBox="0 0 47.228015 49.427589"
   xml:space="preserve"
   id="svg7"
   sodipodi:docname="noun-lens-596688.svg"
   width="47.228016"
   height="49.427589"
   inkscape:export-filename="kit.svg"
   inkscape:export-xdpi="96"
   inkscape:export-ydpi="96"
   xmlns:inkscape="http://www.inkscape.org/namespaces/inkscape"
   xmlns:sodipodi="http://sodipodi.sourceforge.net/DTD/sodipodi-0.dtd"
   xmlns="http://www.w3.org/2000/svg"
   xmlns:svg="http://www.w3.org/2000/svg"><defs
     id="defs7" /><sodipodi:namedview
     id="namedview7"
     pagecolor="#ffffff"
     bordercolor="#000000"
     borderopacity="0.25"
     inkscape:showpageshadow="2"
     inkscape:pageopacity="0.0"
     inkscape:pagecheckerboard="0"
     inkscape:deskcolor="#d1d1d1" /><g
     id="g6"
     transform="matrix(0,-1.174052,0.9135013,0,-22.106731,83.475097)"><path
       d="m 50.2,40 c -5,0 -16.7,-0.5 -16.7,-5.5 0,-4.3 8.6,-6.6 16.7,-6.6 8.1,0 16.7,2.3 16.7,6.6 0,5 -11.7,5.5 -16.7,5.5 z m 0,-10 c -9,0 -14.7,2.7 -14.7,4.6 0,1.7 5.1,3.5 14.7,3.5 9.7,0 14.7,-1.7 14.7,-3.5 0,-1.9 -5.7,-4.6 -14.7,-4.6 z"
       id="path1" /><path
       d="M 50.2,40 C 39.9,40 29,37.2 29,32.1 29,27 39.9,24.2 50.2,24.2 c 13.5,0 20.9,4.1 20.9,8 C 71,37.3 60.6,40 50.2,40 Z m 0,-13.8 c -11,0 -19.2,3.1 -19.2,5.9 0,2.8 8.2,5.9 19.2,5.9 11.1,0 18.8,-3 18.8,-5.8 0,-2.8 -8,-6 -18.8,-6 z"
       id="path2" /><path
       d="M 50.2,56.7 C 39.9,56.7 29,53.9 29,48.8 c 0,-0.6 0.4,-1 1,-1 0.6,0 1,0.4 1,1 0,2.8 8.2,5.9 19.2,5.9 11.1,0 18.8,-3.1 18.8,-5.9 0,-0.6 0.4,-1 1,-1 0.6,0 1,0.4 1,1 0,5.1 -10.7,7.9 -20.8,7.9 z"
       id="path3" /><path
       d="M 50.2,44.5 C 39.9,44.5 29,41.7 29,36.6 c 0,-0.6 0.4,-1 1,-1 0.6,0 1,0.4 1,1 0,2.8 8.2,5.9 19.2,5.9 11.1,0 18.8,-3.1 18.8,-5.9 0,-0.6 0.4,-1 1,-1 0.6,0 1,0.4 1,1 0,5.1 -10.7,7.9 -20.8,7.9 z"
       id="path4" /><path
       d="M 50.2,64.5 C 39.8,64.5 29,61.5 29,56.4 v 0 V 32 c 0,-0.6 0.4,-1 1,-1 0.6,0 1,0.4 1,1 v 24.6 c 0.3,2.8 8.6,6 19.2,6 11.1,0 18.8,-3.1 18.8,-5.9 V 32 c 0,-0.6 0.4,-1 1,-1 0.6,0 1,0.4 1,1 v 24.6 c 0,5.2 -10.7,7.9 -20.8,7.9 z"
       id="path5" /><path
       d="M 50.2,75.9 C 41.3,75.9 32,73.4 32,69.3 V 61 c 0,-0.6 0.4,-1 1,-1 0.6,0 1,0.4 1,1 v 8.2 c 0,1.9 6.4,4.6 16.2,4.6 C 59.7,73.8 66,71 66,69.2 V 61 c 0,-0.6 0.4,-1 1,-1 0.6,0 1,0.4 1,1 v 8.2 c 0,4.3 -9.2,6.7 -17.8,6.7 z"
       id="path6" /></g></svg>
